<svg width="128" height="128" viewBox="0 0 128 128" fill="none" xmlns="http://www.w3.org/2000/svg">
<path fill-rule="evenodd" clip-rule="evenodd" d="M64.0001 6.6665C32.3358 6.6665 6.66675 32.3355 6.66675 63.9998C6.66675 95.6644 32.3358 121.333 64.0001 121.333C95.6646 121.333 121.333 95.6644 121.333 63.9998C121.333 32.3355 95.6646 6.6665 64.0001 6.6665ZM88.1617 53.4948C89.7238 51.9328 89.7238 49.4002 88.1617 47.8381C86.5995 46.276 84.0673 46.276 82.5051 47.8381L57.8315 72.5113C57.311 73.0318 56.4667 73.0318 55.9462 72.5113L45.4952 62.0601C43.9331 60.498 41.4004 60.498 39.8383 62.0601C38.2762 63.6222 38.2762 66.155 39.8383 67.7172L50.2893 78.1684C53.9339 81.8132 59.8438 81.8132 63.4886 78.1684L88.1617 53.4948Z" fill="#279666"/>
</svg>
