<svg width="153" height="153" viewBox="0 0 153 153" fill="none" xmlns="http://www.w3.org/2000/svg">
<path d="M76.5 134.455C66.0681 134.455 56.409 131.847 47.5227 126.631C38.6363 121.415 31.5852 114.364 26.3693 105.477C21.1534 96.5909 18.5454 86.9318 18.5454 76.5C18.5454 66.0681 21.1534 56.409 26.3693 47.5227C31.5852 38.6363 38.6363 31.5852 47.5227 26.3693C56.409 21.1534 66.0681 18.5454 76.5 18.5454C86.9318 18.5454 96.5909 21.1534 105.477 26.3693C114.364 31.5852 121.415 38.6363 126.631 47.5227C131.847 56.409 134.455 66.0681 134.455 76.5C134.455 86.9318 131.847 96.5909 126.631 105.477C121.415 114.364 114.364 121.415 105.477 126.631C96.5909 131.847 86.9318 134.455 76.5 134.455ZM76.5 85.7727L95.0454 104.318L104.318 95.0454L85.7727 76.5L104.318 57.9545L95.0454 48.6818L76.5 67.2272L57.9545 48.6818L48.6818 57.9545L67.2272 76.5L48.6818 95.0454L57.9545 104.318L76.5 85.7727Z" fill="#F04036"/>
</svg>
